<?xml version="1.0" encoding="utf-8"?>
<!-- Generator: Adobe Illustrator 23.0.0, SVG Export Plug-In . SVG Version: 6.00 Build 0)  -->
<svg version="1.0" xmlns="http://www.w3.org/2000/svg" xmlns:xlink="http://www.w3.org/1999/xlink" x="0px" y="0px"
	 viewBox="0 0 750 500" style="enable-background:new 0 0 750 500;" xml:space="preserve">
<style type="text/css">
	.st0{display:none;}
	.st1{display:inline;fill:#FFFFFF;}
	.st2{fill:#E4EBF7;}
	.st3{fill:#FFFFFF;}
	.st4{fill:#FFFFFF;stroke:#0F22D3;stroke-width:1.6103;stroke-miterlimit:10;}
	.st5{fill:#98B2D8;}
	.st6{fill:#B1C3E8;}
	.st7{fill:#B7CAE5;}
	.st8{fill:#97B3D1;}
	.st9{fill:#CED9EA;}
	.st10{fill:#B6C5DD;}
	.st11{fill:#5D7CA0;}
	.st12{fill:#799CBF;}
	.st13{fill:#F2F4F9;}
	.st14{fill:#C1CFE5;}
	.st15{fill:url(#SVGID_1_);}
	.st16{opacity:0.22;fill:#1F395E;}
	.st17{fill:url(#SVGID_2_);}
	.st18{fill:url(#SVGID_3_);}
	.st19{fill:#1F395E;}
	.st20{fill:url(#SVGID_4_);}
	.st21{fill:#3150BC;}
	.st22{fill:#FEB19E;}
	.st23{fill:#FF856A;}
	.st24{fill:url(#SVGID_5_);}
	.st25{opacity:0.6;fill:#9ABCED;}
	.st26{fill:#9ABCED;}
	.st27{fill:#C1C8D3;}
	.st28{fill:url(#SVGID_6_);}
	.st29{fill:url(#SVGID_7_);}
	.st30{fill:#4F7EB7;}
	.st31{opacity:0.71;fill:#7CA6D8;}
	.st32{fill:#EA9BA1;}
	.st33{opacity:0.5;}
	.st34{fill:#7CA6D8;}
	.st35{fill:#E83F54;}
	.st36{opacity:0.5;fill:#9ABCED;}
</style>
<g id="BACKGROUND" class="st0">
	<rect class="st1" width="750" height="500"/>
</g>
<g id="OBJECTS">
	<g>
		<g>
			<path class="st2" d="M623.4,284c0.1,18.2-1.1,34.9-3.4,49.7c-0.2,1.1-0.3,2.2-0.5,3.3c-1.2,7.2-2.6,13.9-4.3,20.1
				c-0.3,1.1-0.6,2.1-0.9,3.1c-6.3,22.1-15.3,37-24.8,42.5H187.7c0,0-34.3-29.7-41.1-72.1c-0.2-1.1-0.3-2.2-0.5-3.3
				c-2.7-21.1,1.6-45.2,20.1-70.2c8.4-11.4,19.5-19.3,32.3-24.8c1-0.4,2-0.8,3-1.2c18.9-7.4,41.1-9.7,63.4-10.1c1.1,0,2.3,0,3.4,0
				c13.3-0.1,26.5,0.5,39,1c1.2,0.1,2.4,0.1,3.5,0.2c20.3,0.9,38.5,1.5,51.8-0.9h0c1.2-0.2,2.4-0.5,3.5-0.8h0
				c14.7-3.6,21.9-11.9,16.7-29.8c-10.1-34.7,0.2-60.2,22.7-74.2c1.1-0.7,2.3-1.4,3.5-2.1c12.7-6.9,28.8-10.5,46.9-10.5
				c1.3,0,2.6,0,3.9,0.1c15.4,0.5,32.3,3.5,49.8,9.3c9.4,3.1,18.2,7,26.3,11.4c1,0.5,2,1.1,3,1.7c15.9,9.2,29.4,20.8,40.5,34
				c0.8,0.9,1.5,1.8,2.2,2.7C610.6,198.7,623.1,244.7,623.4,284z"/>
			<path class="st3" d="M615.3,357.2c-0.3,1.1-0.6,2.1-0.9,3.1c-5.9-2.1-12.2-4.8-18.6-8.3c-29.5-16-67-51.7-78.4-130.7
				c-4.9-34.1,1.4-66.5,18.6-96.5c1,0.5,2,1.1,3,1.7c-15.1,26.3-23.6,57.7-18.4,94.3c11.2,77.6,47.8,112.6,76.6,128.2
				C603.4,352.5,609.5,355.1,615.3,357.2z"/>
			<path class="st3" d="M620.1,333.8c-0.2,1.1-0.3,2.2-0.5,3.3c-18.6-8.7-42.1-27.8-53-69c-10.6-40-6.4-75.5,13-107.5
				c0.8,0.9,1.5,1.8,2.2,2.7c-18.4,31-22.3,65.4-12,104C580.1,306.7,602.3,325.2,620.1,333.8z"/>
			<path class="st3" d="M444.4,171.5c1.6,52.5-4.4,86.4-19.4,109.9c-15.7,24.7-41.8,39.6-84.7,48.4c-8,1.6-15.9,2.5-23.7,2.5
				c-24.2,0-46.9-7.9-66.9-23.3c-23.2-17.9-41-44.9-51.2-76.5c1-0.4,2-0.8,3-1.2c10,31.1,27.4,57.6,50.1,75.2
				c25.6,19.8,56,26.7,87.9,20.2c79.9-16.3,104.5-54,101.5-155.1c-0.9-28.7,4.2-51.3,14.9-67.6c1.3,0,2.6,0,3.9,0.1
				C448.7,119.8,443.5,142.5,444.4,171.5z"/>
			<path class="st3" d="M344.7,280.1c-3.3,0.5-6.7,0.8-10.2,0.8c-25.7,0-55.2-15.6-69.6-59.6c1.1,0,2.3,0,3.4,0
				c15.8,47.3,49.7,60,75.9,55.7c35.4-5.8,69.4-42.2,62.8-98.4c-2.8-24.1-3-44.6-1.4-62c1.1-0.7,2.3-1.4,3.5-2.1
				c-1.8,17.7-1.8,38.8,1.1,63.7C417.1,236.3,381.6,274,344.7,280.1z"/>
			<path class="st3" d="M366.2,220.6c-1.2,5.7-3.4,11.4-7.1,16.3c-4.9,6.5-11.9,10.3-20.6,11.4c-1,0.1-2.1,0.2-3.1,0.2
				c-5.4,0-10.4-1.9-14.8-5.6c-5.8-4.9-10.1-12.5-13.2-20.7c1.2,0.1,2.4,0.1,3.5,0.2c2.9,7.3,6.7,13.9,11.7,18.1
				c4.5,3.8,9.7,5.3,15.4,4.6c7.9-1,14.1-4.4,18.5-10.1c3.1-4,5-8.8,6.2-13.6h0C363.9,221.1,365,220.9,366.2,220.6z"/>
			<path class="st3" d="M241.1,402.8h-3.5c-14.4-33.1-35.3-55.1-62-65.6c-9.7-3.8-19.5-5.8-29-6.5c-0.2-1.1-0.3-2.2-0.5-3.3
				c10,0.7,20.4,2.8,30.7,6.8C204.7,345.2,226.3,368.2,241.1,402.8z"/>
		</g>
		<g>
			<polygon class="st4" points="463,462.5 463,462.5 463,462.5 463,462.5 			"/>
			<g>
				<g>
					<g>
						<path class="st5" d="M171.4,303.1l-10,10.3l-4.2-6.1l-1.4-2c-4.4,1.1-11-7.6-13.6-12.2c-2.6-4.6,7.9-11.8,7.9-11.8
							c-1.7-5.1-8.6-8.3-8.8-9.8c-0.2-1.4,1.5-2.9,7.7,0c6.2,2.9,11.7,13.3,11.7,13.3c1.1-3-3.8-11.2-2.9-12.1
							c0.9-0.9,5.7,0.2,9.5,8.1c3.7,7.9,1.5,17.1,1.5,17.1l0,0.1L171.4,303.1z"/>
						<path class="st6" d="M149.8,280.4c0,0,7.4,8.5,6.6,11.8c-0.8,3.3-4.5-0.5-4.5-0.5s3.4,4,2.3,5.3c-1.1,1.3-5.2-2-5.2-2
							s4.9,6.1,0,5.2s-11.1-10.2-6.4-11.1c0,0-0.6-6.8,3.8-4.5C146.4,284.5,144.4,278.9,149.8,280.4z"/>
					</g>
					<path class="st7" d="M239.7,402.9c0,0,8.3-24.3,3.9-48.3c0,0,0,0,0-0.2c0,0,0-0.1,0-0.2c-0.1-0.6-0.3-1.3-0.4-1.9
						c0,0-4.8,4.2-11.5,8.4c-8,5-18.7,10-26.9,7.7c-15-4.3-37-33.5-47.2-56.6c0,0,5.1-7.6,15.3-10c0,0,20.4,27.2,38.4,33.6
						c0,0,9.7-11.5,17.2-28.5c4.8-10.8,12-17.6,21.1-21.3c5.2-2.1,10.9-3.2,17.2-3.4l15.8-7.4c0,0,2.6,0,6.5,0.5
						c7.4,1,19.7,3.7,29.6,11.2c15.3,11.7,37.3,116.1,37.3,116.1H239.7z"/>
					<path class="st8" d="M243.6,354.4c-0.1-0.7-0.3-1.4-0.4-2.1c0,0-4.8,4.2-11.5,8.4l4.7-39.8
						C241.1,339.2,243.3,352.8,243.6,354.4z"/>
					<path class="st9" d="M289,275.5c-2.4,15.5-17.9,29.7-29.1,29.5c-9-0.2-10.3-13-10.4-19.3c5.2-2.1,10.9-3.2,17.2-3.4l15.8-7.4
						C282.4,274.9,285,275,289,275.5z"/>
					<path class="st8" d="M262.2,387.1c0,0,35.5-36.9,37-75.8l10.5,32.7l-4,34.1L262.2,387.1z"/>
					<path class="st5" d="M261.2,402.9h-39.8c0,0,0.1-5.4,6.2-7.2c6.1-1.8,10.1-9.5,28.5-8.5L261.2,402.9z"/>
					<path class="st10" d="M301.9,366.3c0,0-18.7,10.8-48.2,18.4c0,0-4.1,9.9,3.1,18.1h57.1L301.9,366.3z"/>
				</g>
				<g>
					<path class="st11" d="M232.1,253.4c0,0-8.5-11.7-7.4-19.6s8.3-6,8.3-6s-0.3-19.1,17.4-14.3c0,0-0.4-5.8,3.5-5.7
						c3.9,0.2,9.9,9.1,9.9,9.1s1.5-6.6,4.1-5c2.6,1.6,3.4,8.4,8.9,11.6c5.5,3.3,8.9,7.5,4.6,20.8c-4.3,13.3-1.1,14.2-2.6,21
						c-1.5,6.5-2.6,10.4-6.6,10.8c-4,0.4-19.4-15.9-19.4-15.9L232.1,253.4z"/>
					<path class="st5" d="M282.4,274.9c0,0-9.9,23.9-20.2,22.1c-5.2-0.9-6.3-4-6.3-7.7c0-4.8,1.8-10.3-1-12.7l12.4-17.7l2.7-3.9
						C270,255.2,273.4,264.9,282.4,274.9z"/>
					<path class="st12" d="M255.9,289.4c0-4.8,1.8-10.3-1-12.7l12.4-17.7c1.1,1.2,1.8,3.4,2.1,6.9
						C271.1,284.2,261.4,288.5,255.9,289.4z"/>
					<path class="st5" d="M230.9,244.1c0,0,3.4,30.8,15.9,37.8c10.9,6,24.2-12.2,24-21.2c0,0,4.8-3.6,4-9.5s-7-3.9-7.8,5.6
						c0,0-5.1-0.4-6-12.2c-3.2,2.6-6.6,1.8-10.2-1.4c0,0-1.8,6.6-11-1.1C239.8,241.9,236.3,246.7,230.9,244.1z"/>
				</g>
			</g>
			<g>
				<g>
					<path class="st11" d="M527.8,363.6c0,0,16.2,27.1,21.9,40.3h-57.3c0,0-3.3-15.8-9-31.1L527.8,363.6z"/>
					<path class="st12" d="M505.4,369.6c-3.1,10.4-7.9,19.3-15,26l1.9,8.2l-69.3-0.9l7.7-47.5L505.4,369.6z"/>
				</g>
				<g>
					<path class="st12" d="M614.2,221.7c0,0,2.3-14.4,6.9-19.5c4.6-5.1,17-12.6,18.5-10c1.5,2.7-11,11.1-11,11.1s5.6-1.3,10.5,7
						c4.8,8.3-10.7,14.8-10.7,14.8l-3.1,7l-12.3-7.8L614.2,221.7z"/>
					<path class="st5" d="M630.2,203.7c0,0-7,7.1-5.9,9.1c1,2,4.9-1.2,4.9-1.2s-3.1,4.8-0.7,6c2.4,1.2,6.2-2.9,6.2-2.9
						s-3.1,4.3-1.3,5.1c1.8,0.8,11.4-6,9.7-7.6c-1.7-1.6-2.7-0.3-2.7-0.3s2-3.4,0-4.5c-2.2-1.2-3.3,0.9-3.3,0.9s1.6-2.6,0.3-3.6
						s-4.1,0.3-4.1,0.3S634.1,200.8,630.2,203.7z"/>
					<path class="st5" d="M623.7,203.5c-2.1-0.6-6.4,3.8-6.4,3.8c-1.7,2.2-2,6.5-2.1,8.5c-0.2,5.6-2.3,8.5-2.3,8.5l6.3,3.9
						c4.9-6.2,3.3-14.3,2.5-17.1C624,207.6,625,203.8,623.7,203.5z"/>
				</g>
				<g>
					<path class="st7" d="M627.8,233.6c0,0-20.9,55.7-54.2,60.7c-14.9,2.2-26.1,2.4-34,2c-9.4-0.5-14-1.9-14.3-2c0,0,0,0,0,0
						s-9.1,17-3.2,41.4c5.9,24.4,8.1,29.5,8.1,29.5s-44.8,33-81.3,2.9L415.8,317l-10.3-16c0,0,9.5-31.1,36.2-51.3l0,0
						c10.1-7.6,22.6-13.7,38-16c7.9-1.2,16.5-1.4,26-0.2c0,0,7.2,2,19,6.4c6.3,2.3,14,5.3,22.6,9c24.4,10.5,31.1,13.6,31.1,13.6
						s26-25.7,32.7-41.2C611.1,221.1,624.5,222.4,627.8,233.6z"/>
					<path class="st8" d="M459.8,259c-0.1,12.5-2.8,24.6-4,34l20.7-4.2l32.2,31.8c0,0,4.1,9.3-4.2,10.9c-6.5,1.3-36.9,5.5-36.9,5.5
						c-7,9.5-10.2,24.1-13.7,38.3l-30.9-53.6L459.8,259z"/>
					<path class="st9" d="M505.7,262c-14.4-3.7-22-16.6-26-28.4c7.9-1.2,16.5-1.4,26-0.2c0,0,7.2,2,19,6.4
						C526.1,250.1,525.6,267.1,505.7,262z"/>
					<path class="st8" d="M543.5,273.4c0,0-3.1,12.1-3.9,22.8c-9.4-0.5-14-1.9-14.3-2c0,0,0,0,0,0S533.4,280.3,543.5,273.4z"/>
				</g>
				<g>
					<path class="st13" d="M507.5,326l-35.9,5.2c-1.1,0.2-2.1-0.6-2.2-1.6l-7.9-54.7c-0.2-1.1,0.6-2.1,1.6-2.2l35.9-5.2
						c1.1-0.2,2.1,0.6,2.2,1.6l7.9,54.7C509.3,324.8,508.6,325.8,507.5,326z"/>
					<path class="st5" d="M481.4,291.1l5.5-2.1c0,0,5.2-14.5,11.7-5.4c0,0,4.5-2.7,4.4-4.2c-0.1-1.5-0.2-3.6-0.2-3.6s9.1,2,7.1,14.7
						s-9.8,11.1-17.5,11.2l-9.5,3.8L481.4,291.1z"/>
					<path class="st14" d="M484.9,308.9c0,0-42.9,28.4-61.4,14.7c-2.8-2.1-5.4-4.3-7.7-6.6l-10.3-16c0,0,9.5-31.1,36.2-51.3l0,0
						c8.8-4,18.1-2.5,18.6,5.7c1.1,19.5-15.6,31.5-17.6,40.4l38.4-7.8C481.1,287.9,487.3,294.6,484.9,308.9z"/>
				</g>
				<g>
					<path class="st11" d="M535.3,203.7c0,0,6.1-13.1,3.6-20.6c-2.5-7.5-9.3-4.4-9.3-4.4s-3.3-18.9-19.8-10.7c0,0-0.7-5.8-4.5-4.9
						c-3.8,0.9-8.1,10.8-8.1,10.8s-2.7-6.2-5-4.2c-2.3,2-1.8,8.9-6.6,13.1c-4.8,4.2-7.3,9-0.6,21.3c6.7,12.2,3.7,13.8,6.5,20.2
						c2.6,6.1,4.5,9.7,8.6,9.3c4-0.4,16.1-19.2,16.1-19.2L535.3,203.7z"/>
					<path class="st5" d="M489.9,234.3c0,0,9.5,23.4,24.4,19.5c5.1-1.3,5.1-6.7,4.5-10.3c-0.8-4.7-3.7-9.8-1.4-12.6l-15.5-15
						l-3.4-3.3C498.4,212.6,496.9,222.7,489.9,234.3z"/>
					<path class="st12" d="M518.8,243.5c-0.8-4.7-3.7-9.8-1.4-12.6l-15.5-15c-0.8,1.4-1.1,3.7-0.8,7.2
						C502.9,241.3,513.1,243.6,518.8,243.5z"/>
					<path class="st5" d="M534.7,194.3c0,0,2.5,30.9-8.6,40.1c-9.6,8-26.1-7.4-27.5-16.4c0,0-5.4-2.7-5.7-8.6s6.2-5.2,8.7,4
						c0,0,4.9-1.3,3.6-13.1c3.6,2,6.8,0.5,9.8-3.3c0,0,3,6.2,10.6-3.2C525.6,193.9,529.9,197.9,534.7,194.3z"/>
				</g>
			</g>
			<g>
				<g>
					<linearGradient id="SVGID_1_" gradientUnits="userSpaceOnUse" x1="372.2396" y1="396.5315" x2="372.2396" y2="299.6471">
						<stop  offset="0" style="stop-color:#1F3A65"/>
						<stop  offset="1" style="stop-color:#294A7A"/>
					</linearGradient>
					<path class="st15" d="M456.1,385.8L456.1,385.8c-0.5,1.9-1.1,3.7-2,5.2c-7.8,14.2-41.5,11.9-41.5,11.9h-76.9
						c-31.8,0-44.6-0.8-47.6-10.7c-0.2-0.5-0.3-1.1-0.4-1.7c-2.2-11.5,8.6-49.1,28.4-74.9c10.2-13.2,20.7-20.1,30-23.7
						c8.9-3.5,16.8-3.9,22.4-3.9c9.8,0,17.6,0.7,24.3,2.3c17.9,4.2,27.3,14.3,41.4,32.3C451.5,344.5,460,370.3,456.1,385.8z"/>
					<path class="st16" d="M320.9,376.6c8.3-13.1,11-31.3,13.3-49.8l7.2,37.6h62.8l11.5-37.6c-0.3,17.6,2.1,34.8,10.5,51.3
						C426.2,378.1,385.1,424.6,320.9,376.6z"/>
					<linearGradient id="SVGID_2_" gradientUnits="userSpaceOnUse" x1="313.7884" y1="404.046" x2="313.7884" y2="378.0009">
						<stop  offset="0" style="stop-color:#1F3A65"/>
						<stop  offset="1" style="stop-color:#294A7A"/>
					</linearGradient>
					<path class="st17" d="M339.9,402.9h-4.2c-31.8,0-44.6-0.8-47.6-10.7c-1.7-7.8,0.5-16,10-18.5c14.9-3.8,40.9,11.3,40.9,11.3
						L339.9,402.9z"/>
					<linearGradient id="SVGID_3_" gradientUnits="userSpaceOnUse" x1="423.0565" y1="404.046" x2="423.0565" y2="378.0009">
						<stop  offset="0" style="stop-color:#1F3A65"/>
						<stop  offset="1" style="stop-color:#294A7A"/>
					</linearGradient>
					<path class="st18" d="M456.1,385.8C456.1,385.8,456.1,385.8,456.1,385.8c-0.5,1.9-1.1,3.7-2,5.2c-7.8,14.2-41.5,11.9-41.5,11.9
						h-22.8l2.9-19.3c0,0,40.4-18.7,54.9-12.9C454.8,373.5,456.9,379.4,456.1,385.8z"/>
					<path class="st19" d="M392.9,290.2c-0.7,9-4.4,25.5-22.6,25.5c-19.2,0-23.2-16.2-24.1-23.9c8.9-3.5,16.8-3.9,22.4-3.9
						C378.3,287.9,386.2,288.6,392.9,290.2z"/>
				</g>
				<g>
					<path class="st3" d="M409.4,402.9h-73.7c-1.8,0-3.2-1.4-3.2-3.2l0,0c0-1.8,1.4-3.2,3.2-3.2h73.7c1.8,0,3.2,1.4,3.2,3.2l0,0
						C412.7,401.4,411.2,402.9,409.4,402.9z"/>
					<linearGradient id="SVGID_4_" gradientUnits="userSpaceOnUse" x1="391.5076" y1="394.2581" x2="357.6921" y2="340.5827">
						<stop  offset="0" style="stop-color:#3855E1"/>
						<stop  offset="1" style="stop-color:#5C7EF7"/>
					</linearGradient>
					<path class="st20" d="M418.4,347.5l-0.3,1.7v0l-7.6,47.3h-75.1l-7.6-49c-0.4-2.4,1.5-4.6,3.9-4.6h82.7
						C416.9,342.9,418.7,345.1,418.4,347.5z"/>
					<path class="st21" d="M418.1,349.2l-7.6,47.3h-74.7l25.3-2.6C387.1,391.1,409.2,373.7,418.1,349.2z"/>
				</g>
				<g>
					<g>
						<path class="st22" d="M370,308.9h-0.5c-2.9,0-5.3-0.6-7.2-1.5c-4.7-2.1-7.6-7.1-7.5-12.3c0-0.5,0-1,0-1.6
							c0-4.3-0.3-7.9-0.3-7.9v-1.9l27.1-1.2c0.1,3.9,0.5,7.4,1.1,10.1c0,0,0,0.1,0,0.1C384.2,300.9,378.2,308.6,370,308.9z"/>
						<path class="st23" d="M382.6,292.7c-11.3,13.2-22.8,5.5-27.9,0.9c0-4.3-0.3-7.9-0.3-7.9v-1.9l27.1-1.2
							C381.6,286.5,382.1,289.9,382.6,292.7z"/>
					</g>
					<g>
						<path class="st22" d="M346.2,270.6c0,0,8.4,23.6,22.4,23.6c14,0,19.8-25.5,19.8-25.5v-22.1h-43.3L346.2,270.6z"/>
						<path class="st22" d="M341.7,257.3c0,0-4.1,0.8-3.4,5.5c0.7,4.7,5,10.5,8.5,7.4L341.7,257.3z"/>
						<path class="st22" d="M391.6,255.3c0,0,4.2,0.2,4.1,5c-0.1,4.8-3.5,11-7.4,8.5L391.6,255.3z"/>
						<linearGradient id="SVGID_5_" gradientUnits="userSpaceOnUse" x1="366.0751" y1="262.975" x2="364.9943" y2="220.8201">
							<stop  offset="0" style="stop-color:#3F2323"/>
							<stop  offset="1" style="stop-color:#5E3434"/>
						</linearGradient>
						<path class="st24" d="M391.6,255.3c0,0-1.5,8.3-3.3,13.5c0,0-3.3-0.7-4.4-9.4c0,0-7.2,1.4-11.7-5.4c0,0-1.1,6.7-8,1.9
							c-4.6,3.8-10.1,4.2-16.2,1.6c0,0,1,8.8-1.9,13c0,0-1.1-3.5-4.5-13.3c0,0-1.5,0.1-2.4,1.4c0,0-7.4-14.5-3.9-21.5
							c3.5-7,8.2-4.3,8.2-4.3s-1.7-9.5,8.6-13c10.3-3.5,10.3-8.2,11.9-7.2c1.6,0.9,2.3,4.4,2.3,4.4s17.8-1.9,22.7,17.3
							c0,0,12.9,0.4,5.2,22C394.3,256.4,393.8,255.5,391.6,255.3z"/>
					</g>
				</g>
			</g>
			<path class="st4" d="M408.6,282.6"/>
			<g>
				<path class="st25" d="M322.7,275.4h-67.4c-2.2,0-4,1.8-4,4v40.3c0,2.2,1.8,4,4,4h46.5l12.1,10.8c0.9,0.8,2.3-0.1,1.9-1.3
					l-3.3-9.5h10.2c2.2,0,4-1.8,4-4v-40.3C326.7,277.2,324.9,275.4,322.7,275.4z"/>
				<g>
					<path class="st26" d="M276.2,286.2h-15.5c-0.6,0-1.1-0.5-1.1-1.1l0,0c0-0.6,0.5-1.1,1.1-1.1h15.5c0.6,0,1.1,0.5,1.1,1.1l0,0
						C277.2,285.7,276.8,286.2,276.2,286.2z"/>
					<path class="st26" d="M314.5,295.3h-45c-0.6,0-1.1-0.5-1.1-1.1l0,0c0-0.6,0.5-1.1,1.1-1.1h45c0.6,0,1.1,0.5,1.1,1.1l0,0
						C315.5,294.9,315.1,295.3,314.5,295.3z"/>
					<path class="st26" d="M314.5,301.9h-53.8c-0.6,0-1.1-0.5-1.1-1.1l0,0c0-0.6,0.5-1.1,1.1-1.1h53.8c0.6,0,1.1,0.5,1.1,1.1l0,0
						C315.5,301.4,315.1,301.9,314.5,301.9z"/>
					<path class="st26" d="M314.5,308.4h-53.8c-0.6,0-1.1-0.5-1.1-1.1l0,0c0-0.6,0.5-1.1,1.1-1.1h53.8c0.6,0,1.1,0.5,1.1,1.1l0,0
						C315.5,307.9,315.1,308.4,314.5,308.4z"/>
					<path class="st26" d="M314.5,314.9h-53.8c-0.6,0-1.1-0.5-1.1-1.1l0,0c0-0.6,0.5-1.1,1.1-1.1h53.8c0.6,0,1.1,0.5,1.1,1.1l0,0
						C315.5,314.5,315.1,314.9,314.5,314.9z"/>
				</g>
			</g>
			<g>
				<path class="st27" d="M621.7,413.3H132.2c-1,0-1.7-0.8-1.7-1.7v-7c0-1,0.8-1.7,1.7-1.7h489.5c1,0,1.7,0.8,1.7,1.7v7
					C623.4,412.5,622.7,413.3,621.7,413.3z"/>
				<g>
					<linearGradient id="SVGID_6_" gradientUnits="userSpaceOnUse" x1="500.5785" y1="389.9193" x2="521.5119" y2="389.9193">
						<stop  offset="0" style="stop-color:#1F3A65"/>
						<stop  offset="1" style="stop-color:#294A7A"/>
					</linearGradient>
					<path class="st28" d="M521.5,377h-20.9v18.1c0,4.2,3.4,7.6,7.6,7.6h5.6c4.2,0,7.6-3.4,7.6-7.6V377z"/>
					<linearGradient id="SVGID_7_" gradientUnits="userSpaceOnUse" x1="530.4736" y1="318.0181" x2="503.9042" y2="370.7543">
						<stop  offset="0" style="stop-color:#E2E8F7"/>
						<stop  offset="1" style="stop-color:#FFFFFF"/>
					</linearGradient>
					<path class="st29" d="M507.2,377v-5.6c0-0.9,0.7-1.7,1.7-1.7h2.1c0.9,0,1.7-0.7,1.7-1.7V366c0-0.9-0.7-1.7-1.7-1.7h-6.8
						c-4.7,0-8.5-3.8-8.5-8.5l0,0c0-4.7,3.8-8.5,8.5-8.5h9c0.9,0,1.7-0.7,1.7-1.7V345c0-4.8,3.9-8.8,8.8-8.8l0,0
						c4.8,0,8.8,3.9,8.8,8.8l0,0c0,5.2-4.2,9.5-9.5,9.5h-15.9c-0.9,0-1.7,0.7-1.7,1.7l0,0c0,0.9,0.7,1.7,1.7,1.7h8.7
						c3.2,0,5.8,2.6,5.8,5.8v3.6c0,3.2-2.6,5.8-5.8,5.8l0,0c-0.9,0-1.7,0.7-1.7,1.7v2.4H507.2z"/>
				</g>
			</g>
			<g>
				<g>
					<path class="st25" d="M492.2,347.4h-55c-2.1,0-3.8-1.7-3.8-3.8v-69.4c0-2.1,1.7-3.8,3.8-3.8h55c2.1,0,3.8,1.7,3.8,3.8v69.4
						C496,345.7,494.3,347.4,492.2,347.4z"/>
					<path class="st30" d="M495.6,344.8h-55c-2.6,0-4.6-2.1-4.6-4.6v-69.4c0-2.6,2.1-4.6,4.6-4.6h55c2.6,0,4.6,2.1,4.6,4.6v69.4
						C500.3,342.8,498.2,344.8,495.6,344.8z M440.7,267.8c-1.7,0-3,1.4-3,3v69.4c0,1.7,1.4,3,3,3h55c1.7,0,3-1.4,3-3v-69.4
						c0-1.7-1.4-3-3-3H440.7z"/>
					<g>
						<path class="st31" d="M455,295h-12.2v-14.6H455V295z M444.4,293.4h9V282h-9V293.4z"/>
						<path class="st32" d="M451.9,290.4l-3.6-4l1.2-1.1l2.2,2.5c1.1-1.5,3.9-4.4,9-6.6l0.6,1.5c-6.5,2.7-8.8,6.7-8.9,6.8
							L451.9,290.4z"/>
						<path class="st26" d="M486.1,285.8h-18.9c-0.7,0-1.2-0.5-1.2-1.2l0,0c0-0.7,0.5-1.2,1.2-1.2h18.9c0.7,0,1.2,0.5,1.2,1.2l0,0
							C487.3,285.3,486.8,285.8,486.1,285.8z"/>
						<path class="st26" d="M486.1,291.6h-18.9c-0.7,0-1.2-0.5-1.2-1.2l0,0c0-0.7,0.5-1.2,1.2-1.2h18.9c0.7,0,1.2,0.5,1.2,1.2l0,0
							C487.3,291.1,486.8,291.6,486.1,291.6z"/>
					</g>
					<g>
						<path class="st31" d="M455,317.4h-12.2v-14.6H455V317.4z M444.4,315.8h9v-11.4h-9V315.8z"/>
						<path class="st32" d="M451.9,312.8l-3.6-4l1.2-1.1l2.2,2.5c1.1-1.5,3.9-4.4,9-6.6l0.6,1.5c-6.5,2.7-8.8,6.7-8.9,6.8
							L451.9,312.8z"/>
						<path class="st26" d="M486.1,308.2h-18.9c-0.7,0-1.2-0.5-1.2-1.2l0,0c0-0.7,0.5-1.2,1.2-1.2h18.9c0.7,0,1.2,0.5,1.2,1.2l0,0
							C487.3,307.7,486.8,308.2,486.1,308.2z"/>
						<path class="st26" d="M486.1,314h-18.9c-0.7,0-1.2-0.5-1.2-1.2l0,0c0-0.7,0.5-1.2,1.2-1.2h18.9c0.7,0,1.2,0.5,1.2,1.2l0,0
							C487.3,313.5,486.8,314,486.1,314z"/>
					</g>
					<g>
						<path class="st31" d="M455,339.8h-12.2v-14.6H455V339.8z M444.4,338.2h9v-11.4h-9V338.2z"/>
						<path class="st32" d="M451.9,335.3l-3.6-4l1.2-1.1l2.2,2.5c1.1-1.5,3.9-4.4,9-6.6l0.6,1.5c-6.5,2.7-8.8,6.7-8.9,6.8
							L451.9,335.3z"/>
						<path class="st26" d="M486.1,330.6h-18.9c-0.7,0-1.2-0.5-1.2-1.2l0,0c0-0.7,0.5-1.2,1.2-1.2h18.9c0.7,0,1.2,0.5,1.2,1.2l0,0
							C487.3,330.1,486.8,330.6,486.1,330.6z"/>
						<path class="st26" d="M486.1,336.5h-18.9c-0.7,0-1.2-0.5-1.2-1.2l0,0c0-0.7,0.5-1.2,1.2-1.2h18.9c0.7,0,1.2,0.5,1.2,1.2l0,0
							C487.3,335.9,486.8,336.5,486.1,336.5z"/>
					</g>
				</g>
				<g>
					<path class="st25" d="M685.2,241.2h-55c-2.1,0-3.8-1.7-3.8-3.8v-69.4c0-2.1,1.7-3.8,3.8-3.8h55c2.1,0,3.8,1.7,3.8,3.8v69.4
						C689,239.5,687.3,241.2,685.2,241.2z"/>
					<path class="st30" d="M690,237.6h-55c-2.6,0-4.6-2.1-4.6-4.6v-69.4c0-2.6,2.1-4.6,4.6-4.6h55c2.6,0,4.6,2.1,4.6,4.6V233
						C694.7,235.5,692.6,237.6,690,237.6z M635.1,160.5c-1.7,0-3,1.4-3,3V233c0,1.7,1.4,3,3,3h55c1.7,0,3-1.4,3-3v-69.4
						c0-1.7-1.4-3-3-3H635.1z"/>
					<g class="st33">
						
							<ellipse transform="matrix(0.2307 -0.973 0.973 0.2307 315.3555 768.2961)" class="st34" cx="643.6" cy="184.7" rx="9.7" ry="9.7"/>
						<path class="st35" d="M646.1,183.4l6.4-11.5c5.9,1.5,8.7,7,5.9,12.7L646.1,183.4z"/>
						<g>
							<path class="st26" d="M640.1,204.8c0,1.6-1.3,2.8-2.8,2.8s-2.8-1.3-2.8-2.8c0-1.6,1.3-2.8,2.8-2.8S640.1,203.3,640.1,204.8z"
								/>
							<path class="st26" d="M640.1,217.3c0,1.6-1.3,2.8-2.8,2.8s-2.8-1.3-2.8-2.8c0-1.6,1.3-2.8,2.8-2.8S640.1,215.8,640.1,217.3z"
								/>
							<path class="st26" d="M676.8,207.7h-22.5c-1.6,0-2.8-1.3-2.8-2.8l0,0c0-1.6,1.3-2.8,2.8-2.8h22.5c1.6,0,2.8,1.3,2.8,2.8l0,0
								C679.7,206.4,678.4,207.7,676.8,207.7z"/>
							<path class="st26" d="M676.8,220.1h-22.5c-1.6,0-2.8-1.3-2.8-2.8l0,0c0-1.6,1.3-2.8,2.8-2.8h22.5c1.6,0,2.8,1.3,2.8,2.8l0,0
								C679.7,218.9,678.4,220.1,676.8,220.1z"/>
							<path class="st26" d="M640.1,230c0,1.6-1.3,2.8-2.8,2.8s-2.8-1.3-2.8-2.8c0-1.6,1.3-2.8,2.8-2.8S640.1,228.4,640.1,230z"/>
							<path class="st26" d="M676.8,232.8h-22.5c-1.6,0-2.8-1.3-2.8-2.8l0,0c0-1.6,1.3-2.8,2.8-2.8h22.5c1.6,0,2.8,1.3,2.8,2.8l0,0
								C679.7,231.6,678.4,232.8,676.8,232.8z"/>
						</g>
					</g>
				</g>
				<g>
					<path class="st25" d="M215.2,218.6h-55c-2.1,0-3.8-1.7-3.8-3.8v-82.3c0-2.1,1.7-3.8,3.8-3.8h55c2.1,0,3.8,1.7,3.8,3.8v82.3
						C219,216.9,217.3,218.6,215.2,218.6z"/>
					<path class="st30" d="M211.7,215.9h-55c-2.6,0-4.6-2.1-4.6-4.6v-82.3c0-2.6,2.1-4.6,4.6-4.6h55c2.6,0,4.6,2.1,4.6,4.6v82.3
						C216.3,213.8,214.3,215.9,211.7,215.9z M156.8,125.9c-1.7,0-3,1.4-3,3v82.3c0,1.7,1.4,3,3,3h55c1.7,0,3-1.4,3-3v-82.3
						c0-1.7-1.4-3-3-3H156.8z"/>
					<g>
						<path class="st34" d="M184.8,165.6l-0.8,0.7c-0.5,0.4-1.3,0.4-1.7-0.1l-8.1-9.1l2.6-2.3l8.1,9.1
							C185.3,164.4,185.3,165.2,184.8,165.6z"/>
						<path class="st34" d="M171.4,140.5c-5.1,0-9.3,4.1-9.3,9.3s4.2,9.3,9.3,9.3c5.1,0,9.3-4.1,9.3-9.3S176.5,140.5,171.4,140.5z
							 M171.4,156.1c-3.5,0-6.3-2.8-6.3-6.3c0-3.5,2.8-6.3,6.3-6.3c3.5,0,6.3,2.8,6.3,6.3C177.7,153.2,174.9,156.1,171.4,156.1z"/>
						<path class="st26" d="M208.9,145.6h-14.6c-0.9,0-1.7-0.8-1.7-1.7l0,0c0-0.9,0.8-1.7,1.7-1.7h14.6c0.9,0,1.7,0.8,1.7,1.7l0,0
							C210.6,144.8,209.9,145.6,208.9,145.6z"/>
						<path class="st26" d="M208.9,154.3h-14.6c-0.9,0-1.7-0.8-1.7-1.7l0,0c0-0.9,0.8-1.7,1.7-1.7h14.6c0.9,0,1.7,0.8,1.7,1.7l0,0
							C210.6,153.6,209.9,154.3,208.9,154.3z"/>
						<path class="st26" d="M208.9,162.4h-14.6c-0.9,0-1.7-0.8-1.7-1.7l0,0c0-0.9,0.8-1.7,1.7-1.7h14.6c0.9,0,1.7,0.8,1.7,1.7l0,0
							C210.6,161.6,209.9,162.4,208.9,162.4z"/>
						<path class="st26" d="M190.7,184.8h-22.5c-1.1,0-1.9-0.9-1.9-1.9l0,0c0-1.1,0.9-1.9,1.9-1.9h22.5c1.1,0,1.9,0.9,1.9,1.9l0,0
							C192.6,183.9,191.8,184.8,190.7,184.8z"/>
						<path class="st26" d="M190.7,196.7h-22.5c-1.1,0-1.9-0.9-1.9-1.9l0,0c0-1.1,0.9-1.9,1.9-1.9h22.5c1.1,0,1.9,0.9,1.9,1.9l0,0
							C192.6,195.9,191.8,196.7,190.7,196.7z"/>
						<path class="st26" d="M190.7,208.7h-22.5c-1.1,0-1.9-0.9-1.9-1.9l0,0c0-1.1,0.9-1.9,1.9-1.9h22.5c1.1,0,1.9,0.9,1.9,1.9l0,0
							C192.6,207.9,191.8,208.7,190.7,208.7z"/>
						<path class="st26" d="M208.4,182.9c0,1.7-1.4,3.1-3.1,3.1c-1.7,0-3.1-1.4-3.1-3.1c0-1.7,1.4-3.1,3.1-3.1
							C207,179.8,208.4,181.2,208.4,182.9z"/>
						<path class="st26" d="M208.4,194.8c0,1.7-1.4,3.1-3.1,3.1c-1.7,0-3.1-1.4-3.1-3.1c0-1.7,1.4-3.1,3.1-3.1
							C207,191.8,208.4,193.1,208.4,194.8z"/>
						<path class="st26" d="M208.4,206.8c0,1.7-1.4,3.1-3.1,3.1c-1.7,0-3.1-1.4-3.1-3.1c0-1.7,1.4-3.1,3.1-3.1
							C207,203.7,208.4,205.1,208.4,206.8z"/>
					</g>
				</g>
				<g>
					<path class="st25" d="M483.7,219.8H383.1c-3.7,0-6.6-3-6.6-6.6v-66.8c0-3.7,3-6.6,6.6-6.6h100.6c3.7,0,6.6,3,6.6,6.6v66.8
						C490.3,216.9,487.4,219.8,483.7,219.8z"/>
					<path class="st30" d="M487.2,217H386.5c-4.1,0-7.4-3.3-7.4-7.4v-66.8c0-4.1,3.3-7.4,7.4-7.4h100.6c4.1,0,7.4,3.3,7.4,7.4v66.8
						C494.6,213.6,491.3,217,487.2,217z M386.5,136.8c-3.2,0-5.8,2.6-5.8,5.8v66.8c0,3.2,2.6,5.8,5.8,5.8h100.6
						c3.2,0,5.8-2.6,5.8-5.8v-66.8c0-3.2-2.6-5.8-5.8-5.8H386.5z"/>
					<g>
						<path class="st36" d="M446.5,156h-55.8c-1.6,0-2.9-1.3-2.9-2.9l0,0c0-1.6,1.3-2.9,2.9-2.9h55.8c1.6,0,2.9,1.3,2.9,2.9l0,0
							C449.4,154.7,448.1,156,446.5,156z"/>
						<path class="st31" d="M447.3,198.9h-57.5c-1.1,0-2.1-0.9-2.1-2.1v-28.5c0-1.1,0.9-2.1,2.1-2.1h57.5c1.1,0,2.1,0.9,2.1,2.1
							v28.5C449.4,198,448.5,198.9,447.3,198.9z"/>
						<path class="st36" d="M476.1,156h-16.5c-1.6,0-2.9-1.3-2.9-2.9l0,0c0-1.6,1.3-2.9,2.9-2.9h16.5c1.6,0,2.9,1.3,2.9,2.9l0,0
							C479,154.7,477.7,156,476.1,156z"/>
						<path class="st36" d="M477.2,171.5h-17.3c-1,0-1.8-0.8-1.8-1.8l0,0c0-1,0.8-1.8,1.8-1.8h17.3c1,0,1.8,0.8,1.8,1.8l0,0
							C479,170.7,478.2,171.5,477.2,171.5z"/>
						<path class="st36" d="M477.2,179.7h-17.3c-1,0-1.8-0.8-1.8-1.8l0,0c0-1,0.8-1.8,1.8-1.8h17.3c1,0,1.8,0.8,1.8,1.8l0,0
							C479,178.9,478.2,179.7,477.2,179.7z"/>
						<path class="st36" d="M477.2,187.9h-17.3c-1,0-1.8-0.8-1.8-1.8l0,0c0-1,0.8-1.8,1.8-1.8h17.3c1,0,1.8,0.8,1.8,1.8l0,0
							C479,187.1,478.2,187.9,477.2,187.9z"/>
						<path class="st36" d="M477.2,196.1h-17.3c-1,0-1.8-0.8-1.8-1.8l0,0c0-1,0.8-1.8,1.8-1.8h17.3c1,0,1.8,0.8,1.8,1.8l0,0
							C479,195.3,478.2,196.1,477.2,196.1z"/>
						<path class="st36" d="M465.4,211.7h-64.2c-1.3,0-2.4-1.1-2.4-2.4l0,0c0-1.3,1.1-2.4,2.4-2.4h64.2c1.3,0,2.4,1.1,2.4,2.4l0,0
							C467.8,210.6,466.7,211.7,465.4,211.7z"/>
					</g>
				</g>
				<g>
					<path class="st25" d="M160.7,301.8H65.4c-3,0-5.4-2.4-5.4-5.4v-57.7c0-3,2.4-5.4,5.4-5.4h95.3c3,0,5.4,2.4,5.4,5.4v57.7
						C166.1,299.4,163.7,301.8,160.7,301.8z"/>
					<path class="st30" d="M156.8,298.7H61.5c-3.4,0-6.2-2.8-6.2-6.2v-57.7c0-3.4,2.8-6.2,6.2-6.2h95.3c3.4,0,6.2,2.8,6.2,6.2v57.7
						C163,295.9,160.2,298.7,156.8,298.7z M61.5,230.2c-2.5,0-4.6,2-4.6,4.6v57.7c0,2.5,2,4.6,4.6,4.6h95.3c2.5,0,4.6-2,4.6-4.6
						v-57.7c0-2.5-2-4.6-4.6-4.6H61.5z"/>
					<g class="st33">
						<path class="st34" d="M98.2,265c-2.5,2.5-5.9,4-9.7,4c-7.5,0-13.7-6.1-13.7-13.7c0-7.6,6.1-13.7,13.7-13.7
							c1.5,0,3,0.3,4.4,0.7l-4.4,12.9L98.2,265z"/>
						<path class="st35" d="M104,254.3c0,3.2-1.3,6.1-3.4,8.2l-8.2-8.2l3.7-11C100.7,244.8,104,249.2,104,254.3z"/>
						<path class="st26" d="M150.2,269.8h-31.4v-26.5c0-0.4,0.4-0.8,0.8-0.8c0.4,0,0.8,0.4,0.8,0.8v24.9h29.8c0.4,0,0.8,0.4,0.8,0.8
							C151,269.4,150.6,269.8,150.2,269.8z"/>
						<rect x="125.3" y="256.1" class="st26" width="4" height="12"/>
						<rect x="133.7" y="250" class="st35" width="4" height="18.2"/>
						<rect x="141.8" y="259.1" class="st26" width="4" height="9.1"/>
						<path class="st26" d="M94.6,282.1H75.6c-0.8,0-1.4-0.6-1.4-1.4v0c0-0.8,0.6-1.4,1.4-1.4h18.9c0.8,0,1.4,0.6,1.4,1.4v0
							C96,281.5,95.3,282.1,94.6,282.1z"/>
						<path class="st26" d="M123.4,282.1h-18.9c-0.8,0-1.4-0.6-1.4-1.4v0c0-0.8,0.6-1.4,1.4-1.4h18.9c0.8,0,1.4,0.6,1.4,1.4v0
							C124.8,281.5,124.2,282.1,123.4,282.1z"/>
						<path class="st26" d="M150.5,282.1h-18.9c-0.8,0-1.4-0.6-1.4-1.4v0c0-0.8,0.6-1.4,1.4-1.4h18.9c0.8,0,1.4,0.6,1.4,1.4v0
							C151.9,281.5,151.3,282.1,150.5,282.1z"/>
						<path class="st26" d="M107,292.2H88c-0.8,0-1.4-0.6-1.4-1.4l0,0c0-0.8,0.6-1.4,1.4-1.4H107c0.8,0,1.4,0.6,1.4,1.4l0,0
							C108.4,291.5,107.7,292.2,107,292.2z"/>
						<path class="st26" d="M134.1,292.2h-18.9c-0.8,0-1.4-0.6-1.4-1.4l0,0c0-0.8,0.6-1.4,1.4-1.4h18.9c0.8,0,1.4,0.6,1.4,1.4l0,0
							C135.5,291.5,134.8,292.2,134.1,292.2z"/>
					</g>
				</g>
			</g>
		</g>
	</g>
</g>
</svg>
